<svg width="30" height="30" xmlns="http://www.w3.org/2000/svg"><path d="M20.235 11.445C19.965 7.26 18.27 3.18 15.09 0a18.282 18.282 0 0 0-5.325 11.445A20.8 20.8 0 0 1 15 15.39a21.537 21.537 0 0 1 5.235-3.945zm-9.75 3.975c-.21-.15-.45-.285-.675-.435.225.165.465.285.675.435zm9.63-.375c-.195.135-.405.24-.6.39.195-.15.405-.255.6-.39zM15 20.175C11.775 15.255 6.27 12 0 12c0 7.98 5.04 14.73 12.045 17.235.945.345 1.935.6 2.955.765a19.41 19.41 0 0 0 2.955-.765C24.96 26.73 30 19.98 30 12c-6.27 0-11.775 3.255-15 8.175z" fill="#D93025" fill-rule="nonzero"/></svg>