<?xml version="1.0" encoding="utf-8"?>
<!-- Generator: Adobe Illustrator 21.0.0, SVG Export Plug-In . SVG Version: 6.00 Build 0)  -->
<svg version="1.1" id="StrawhatLogo_x5F_OneColor_x5F_rgb_21_"
	 xmlns="http://www.w3.org/2000/svg" xmlns:xlink="http://www.w3.org/1999/xlink" x="0px" y="0px" width="89.5px" height="29.6px"
	 viewBox="0 0 89.5 29.6" style="enable-background:new 0 0 89.5 29.6;" xml:space="preserve">
<style type="text/css">
	.st0{enable-background:new    ;}
	.st1{fill:#5F6368;}
</style>
<g class="st0">
	<path class="st1" d="M0.3,16.9l2.4-0.2c0.1,1,0.4,1.8,0.8,2.4s1.1,1.1,1.9,1.5c0.9,0.4,1.9,0.6,3,0.6c1,0,1.8-0.1,2.6-0.4
		c0.7-0.3,1.3-0.7,1.7-1.2s0.5-1.1,0.5-1.7s-0.2-1.1-0.5-1.6c-0.4-0.5-0.9-0.8-1.7-1.1c-0.5-0.2-1.7-0.5-3.4-0.9s-3-0.8-3.7-1.2
		C3,12.6,2.3,12,1.8,11.3C1.3,10.5,1,9.7,1,8.8c0-1,0.3-1.9,0.8-2.7c0.6-0.8,1.4-1.5,2.4-1.9c1.1-0.4,2.2-0.7,3.6-0.7
		s2.7,0.2,3.8,0.7s1.9,1.1,2.5,2s0.9,1.9,1,3l-2.5,0.2c-0.1-1.2-0.6-2.1-1.3-2.8C10.6,6,9.4,5.7,7.9,5.7S5.3,6,4.6,6.6
		c-0.7,0.5-1.1,1.2-1.1,2c0,0.7,0.3,1.3,0.8,1.7s1.8,0.9,3.9,1.4s3.5,0.9,4.3,1.2c1.1,0.5,2,1.2,2.5,2s0.8,1.7,0.8,2.8
		c0,1-0.3,2-0.9,2.9c-0.6,0.9-1.4,1.6-2.5,2.1s-2.3,0.8-3.7,0.8c-1.8,0-3.2-0.3-4.4-0.8C3,22.2,2,21.4,1.4,20.4S0.3,18.2,0.3,16.9z"
		/>
</g>
<path class="st1" d="M22.8,21.4l0.3,1.7c-0.5,0.1-1,0.2-1.5,0.2c-0.7,0-1.3-0.1-1.6-0.3c-0.4-0.2-0.7-0.5-0.8-0.9
	C19,21.7,19,21,19,19.8v-6.6h-1.4v-1.5H19V8.8l1.9-1.2v4h2v1.5h-2v6.7c0,0.6,0,0.9,0.1,1.1s0.2,0.3,0.3,0.4c0.2,0.1,0.4,0.1,0.7,0.1
	C22.1,21.5,22.4,21.4,22.8,21.4z"/>
<path class="st1" d="M24.7,23.1V11.7h1.7v1.7c0.4-0.8,0.9-1.3,1.2-1.6c0.4-0.3,0.8-0.4,1.2-0.4c0.7,0,1.3,0.2,2,0.6l-0.7,1.8
	c-0.5-0.3-0.9-0.4-1.4-0.4c-0.4,0-0.8,0.1-1.1,0.4s-0.6,0.6-0.7,1.1c-0.2,0.7-0.3,1.4-0.3,2.3v6h-1.9V23.1z"/>
<path class="st1" d="M39.5,21.7c-0.7,0.6-1.4,1-2.1,1.3c-0.7,0.3-1.4,0.4-2.1,0.4c-1.3,0-2.2-0.3-2.9-0.9s-1-1.4-1-2.4
	c0-0.6,0.1-1.1,0.4-1.5c0.3-0.4,0.6-0.8,1-1.1c0.4-0.3,0.9-0.5,1.4-0.6c0.4-0.1,1-0.2,1.7-0.3c1.6-0.2,2.7-0.4,3.5-0.7
	c0-0.3,0-0.4,0-0.5c0-0.8-0.2-1.3-0.6-1.7c-0.5-0.4-1.2-0.7-2.2-0.7c-0.9,0-1.6,0.2-2,0.5s-0.8,0.9-1,1.7l-1.9-0.3
	c0.2-0.8,0.5-1.5,0.9-2s1-0.9,1.7-1.2s1.6-0.4,2.6-0.4s1.8,0.1,2.4,0.3c0.6,0.2,1.1,0.5,1.3,0.9c0.3,0.3,0.5,0.8,0.6,1.3
	c0.1,0.3,0.1,0.9,0.1,1.8v2.6c0,1.8,0,2.9,0.1,3.4s0.2,0.9,0.5,1.4h-2C39.7,22.7,39.6,22.3,39.5,21.7z M39.4,17.4
	c-0.7,0.3-1.8,0.5-3.2,0.7c-0.8,0.1-1.4,0.2-1.7,0.4s-0.6,0.4-0.8,0.6c-0.2,0.3-0.3,0.6-0.3,0.9c0,0.5,0.2,1,0.6,1.3
	c0.4,0.3,1,0.5,1.7,0.5s1.4-0.2,2-0.5s1-0.8,1.3-1.3c0.2-0.4,0.3-1.1,0.3-1.9v-0.7H39.4z"/>
<path class="st1" d="M46.4,23.1l-3.5-11.5h2l1.8,6.6l0.7,2.5c0-0.1,0.2-0.9,0.6-2.4l1.8-6.7h2l1.7,6.6l0.6,2.2l0.7-2.2l2-6.6h1.9
	l-3.6,11.5h-2l-1.8-6.9l-0.4-2L48.6,23h-2.2V23.1z"/>
<path class="st1" d="M60.3,23.1V7.3h1.9V13c0.9-1.1,2.1-1.6,3.4-1.6c0.8,0,1.6,0.2,2.2,0.5s1.1,0.8,1.3,1.4s0.4,1.4,0.4,2.6v7.3
	h-1.9v-7.3c0-1-0.2-1.7-0.6-2.1s-1-0.7-1.8-0.7c-0.6,0-1.1,0.1-1.6,0.4c-0.5,0.3-0.9,0.7-1.1,1.2c-0.2,0.5-0.3,1.2-0.3,2.1v6.3
	C62.2,23.1,60.3,23.1,60.3,23.1z"/>
<path class="st1" d="M80.1,21.7c-0.7,0.6-1.4,1-2.1,1.3s-1.4,0.4-2.1,0.4c-1.3,0-2.2-0.3-2.9-0.9c-0.7-0.6-1-1.4-1-2.4
	c0-0.6,0.1-1.1,0.4-1.5c0.3-0.5,0.6-0.8,1-1.1s0.9-0.5,1.4-0.6c0.4-0.1,1-0.2,1.7-0.3c1.6-0.2,2.7-0.4,3.5-0.7c0-0.3,0-0.4,0-0.5
	c0-0.8-0.2-1.3-0.6-1.7c-0.5-0.4-1.2-0.7-2.2-0.7c-0.9,0-1.6,0.2-2,0.5s-0.8,0.9-1,1.7l-1.9-0.3c0.2-0.8,0.5-1.5,0.9-2
	s1-0.9,1.7-1.2s1.6-0.4,2.6-0.4s1.8,0.1,2.4,0.3s1.1,0.5,1.3,0.9c0.3,0.3,0.5,0.8,0.6,1.3c0.1,0.3,0.1,0.9,0.1,1.8v2.6
	c0,1.8,0,2.9,0.1,3.4s0.2,0.9,0.5,1.4h-2C80.2,22.7,80.1,22.3,80.1,21.7z M79.9,17.4c-0.7,0.3-1.8,0.5-3.2,0.7
	c-0.8,0.1-1.4,0.2-1.7,0.4c-0.3,0.1-0.6,0.4-0.8,0.6c-0.2,0.3-0.3,0.6-0.3,0.9c0,0.5,0.2,1,0.6,1.3s1,0.5,1.7,0.5s1.4-0.2,2-0.5
	s1-0.8,1.3-1.3c0.2-0.4,0.3-1.1,0.3-1.9L79.9,17.4L79.9,17.4z"/>
<path class="st1" d="M89.1,21.4l0.3,1.7c-0.5,0.1-1,0.2-1.5,0.2c-0.7,0-1.3-0.1-1.6-0.3s-0.7-0.5-0.8-0.9c-0.2-0.4-0.2-1.1-0.2-2.3
	v-6.6h-1.4v-1.5h1.4V8.8l1.9-1.2v4h2v1.5h-2v6.7c0,0.6,0,0.9,0.1,1.1s0.2,0.3,0.3,0.4c0.2,0.1,0.4,0.1,0.7,0.1
	C88.5,21.5,88.8,21.4,89.1,21.4z"/>
</svg>
